# xmcd
#
# Track frame offsets:
#	150
#	15637
#	31190
#	44995
#	57452
#	71265
#	85732
#	97040
#	115477
#	132085
#	145910
#	160247
#	176727
#	190255
#	204865
#	217617
#	229642
#	244017
#	257365
#	272722
#
# Disc length: 3805 seconds
# Revision: 1
# Processed by: cddbd v1.5.2PL0 Copyright (c) Steve Scherf et al.
# Submitted via: dBpowerAMP V12.0
#
DISCID=140edb14
DTITLE=Don Williams - The Best Of Don Williams
DYEAR=1973
DGENRE=Country*
TTITLE0=I Recall A Gypsy Woman
TTITLE1=Till The River All Runs Dry
TTITLE2=Say It Again
TTITLE3=Some Broken Hearts Never Mend
TTITLE4=I'm Just A Country Boy
TTITLE5=Tulsa Time
TTITLE6=It Must Be Love
TTITLE7=I Believe In You
TTITLE8=Love Is On A Roll
TTITLE9=Stay Young
TTITLE10=Amanda
TTITLE11=That's The Thing About Love
TTITLE12=Shelter Of Your Eyes
TTITLE13=She's In Love With A Rodeo Man
TTITLE14=It's Gotta Be Magic
TTITLE15=Your Sweet Love
TTITLE16=Listen To The Radio
TTITLE17=Love Me Over Again
TTITLE18=All I'm Missing Is You
TTITLE19=You're My Best Friend
EXTD=
EXTT0=
EXTT1=
EXTT2=
EXTT3=
EXTT4=
EXTT5=
EXTT6=
EXTT7=
EXTT8=
EXTT9=
EXTT10=
EXTT11=
EXTT12=
EXTT13=
EXTT14=
EXTT15=
EXTT16=
EXTT17=
EXTT18=
EXTT19=
PLAYORDER=
